<svg width="146" height="135" viewBox="0 0 146 135" fill="none" xmlns="http://www.w3.org/2000/svg">
<path d="M16.375 85.1875C11.9167 85.1875 9.6875 84.0208 9.6875 81.6875V10.5625C9.6875 9.35417 10.2292 8.45833 11.3125 7.875C12.3958 7.25 14.0833 6.9375 16.375 6.9375H21.125C22.9167 6.9375 24.3958 7.14583 25.5625 7.5625C26.7292 7.97917 27.6875 8.79167 28.4375 10L54.6875 50.4375L57.6875 54.9375V10.5625C57.6875 9.35417 58.2292 8.45833 59.3125 7.875C60.3958 7.25 62.0833 6.9375 64.375 6.9375H67.5625C69.8542 6.9375 71.5208 7.25 72.5625 7.875C73.6458 8.45833 74.1875 9.35417 74.1875 10.5625V81.6875C74.1875 84.0208 71.9792 85.1875 67.5625 85.1875H63.3125C61.4792 85.1875 60 85 58.875 84.625C57.75 84.2083 56.8125 83.4167 56.0625 82.25L28.5625 40.1875L26.1875 36.6875V81.6875C26.1875 84.0208 23.9792 85.1875 19.5625 85.1875H16.375ZM89 31.875C87.7917 31.875 86.6458 31.6875 85.5625 31.3125C84.5208 30.8958 84 30.2708 84 29.4375C84 28.7292 84.25 27.6667 84.75 26.25C85.625 24.1667 86.3125 22.3958 86.8125 20.9375C87.3125 19.4375 87.7708 17.3958 88.1875 14.8125C88.6458 12.2292 88.875 9.20833 88.875 5.75C88.875 4.20833 89.4167 3.02083 90.5 2.1875C91.625 1.3125 93.3125 0.875 95.5625 0.875H97.6875C99.8958 0.875 101.562 1.33333 102.688 2.25C103.812 3.125 104.375 4.29167 104.375 5.75C104.375 9.66667 103.458 13.6667 101.625 17.75C99.8333 21.7917 97.6875 25.1667 95.1875 27.875C92.7292 30.5417 90.6667 31.875 89 31.875Z" fill="white"/>
<path d="M104.5 104.938C100.458 104.938 96.8542 103.771 93.6875 101.438C90.5625 99.0625 88.1042 95.625 86.3125 91.125C84.5625 86.5833 83.6875 81.1667 83.6875 74.875C83.6875 68.8333 84.6042 63.5625 86.4375 59.0625C88.2708 54.5625 90.9375 51.1042 94.4375 48.6875C97.9792 46.2292 102.208 45 107.125 45C111.542 45 115.312 46.1458 118.438 48.4375V23.8125C118.438 21.3958 120.667 20.1875 125.125 20.1875H128.25C130.542 20.1875 132.208 20.5 133.25 21.125C134.333 21.7083 134.875 22.6042 134.875 23.8125V84.375C134.875 87.8333 134.958 90.5208 135.125 92.4375C135.333 94.3542 135.604 96.25 135.938 98.125C136.146 99.25 136.25 100.042 136.25 100.5C136.25 101.333 135.458 102.021 133.875 102.562C132.333 103.104 130.562 103.5 128.562 103.75C126.604 104 125.021 104.125 123.812 104.125C122.521 104.125 121.604 103.625 121.062 102.625C120.562 101.625 120.104 100.167 119.688 98.25L119.312 96.5625C117.979 99.0208 116 101.042 113.375 102.625C110.75 104.167 107.792 104.938 104.5 104.938ZM109.375 91.4375C112.875 91.4375 115.896 89.25 118.438 84.875V60.0625C115.812 58.6458 113.229 57.9375 110.688 57.9375C103.771 57.9375 100.312 63.5833 100.312 74.875C100.312 85.9167 103.333 91.4375 109.375 91.4375Z" fill="white"/>
<path d="M4.65448 89.5996L142.22 117.989L30.0477 104.216C28.824 104.066 28.4654 105.831 29.6506 106.17L87.9967 122.868C89.0316 123.164 88.9321 124.662 87.8671 124.819L49.8481 130.412" stroke="white" stroke-width="8" stroke-linecap="round"/>
<circle cx="142" cy="118" r="4" fill="white"/>
</svg>
