<svg width="128" height="105" viewBox="0 0 128 105" fill="none" xmlns="http://www.w3.org/2000/svg">
<path d="M7.375 85.1875C2.91667 85.1875 0.6875 84.0208 0.6875 81.6875V10.5625C0.6875 9.35417 1.22917 8.45833 2.3125 7.875C3.39583 7.25 5.08333 6.9375 7.375 6.9375H12.125C13.9167 6.9375 15.3958 7.14583 16.5625 7.5625C17.7292 7.97917 18.6875 8.79167 19.4375 10L45.6875 50.4375L48.6875 54.9375V10.5625C48.6875 9.35417 49.2292 8.45833 50.3125 7.875C51.3958 7.25 53.0833 6.9375 55.375 6.9375H58.5625C60.8542 6.9375 62.5208 7.25 63.5625 7.875C64.6458 8.45833 65.1875 9.35417 65.1875 10.5625V81.6875C65.1875 84.0208 62.9792 85.1875 58.5625 85.1875H54.3125C52.4792 85.1875 51 85 49.875 84.625C48.75 84.2083 47.8125 83.4167 47.0625 82.25L19.5625 40.1875L17.1875 36.6875V81.6875C17.1875 84.0208 14.9792 85.1875 10.5625 85.1875H7.375ZM80 31.875C78.7917 31.875 77.6458 31.6875 76.5625 31.3125C75.5208 30.8958 75 30.2708 75 29.4375C75 28.7292 75.25 27.6667 75.75 26.25C76.625 24.1667 77.3125 22.3958 77.8125 20.9375C78.3125 19.4375 78.7708 17.3958 79.1875 14.8125C79.6458 12.2292 79.875 9.20833 79.875 5.75C79.875 4.20833 80.4167 3.02083 81.5 2.1875C82.625 1.3125 84.3125 0.875 86.5625 0.875H88.6875C90.8958 0.875 92.5625 1.33333 93.6875 2.25C94.8125 3.125 95.375 4.29167 95.375 5.75C95.375 9.66667 94.4583 13.6667 92.625 17.75C90.8333 21.7917 88.6875 25.1667 86.1875 27.875C83.7292 30.5417 81.6667 31.875 80 31.875Z" fill="white"/>
<path d="M95.5 104.938C91.4583 104.938 87.8542 103.771 84.6875 101.438C81.5625 99.0625 79.1042 95.625 77.3125 91.125C75.5625 86.5833 74.6875 81.1667 74.6875 74.875C74.6875 68.8333 75.6042 63.5625 77.4375 59.0625C79.2708 54.5625 81.9375 51.1042 85.4375 48.6875C88.9792 46.2292 93.2083 45 98.125 45C102.542 45 106.312 46.1458 109.438 48.4375V23.8125C109.438 21.3958 111.667 20.1875 116.125 20.1875H119.25C121.542 20.1875 123.208 20.5 124.25 21.125C125.333 21.7083 125.875 22.6042 125.875 23.8125V84.375C125.875 87.8333 125.958 90.5208 126.125 92.4375C126.333 94.3542 126.604 96.25 126.938 98.125C127.146 99.25 127.25 100.042 127.25 100.5C127.25 101.333 126.458 102.021 124.875 102.562C123.333 103.104 121.562 103.5 119.562 103.75C117.604 104 116.021 104.125 114.812 104.125C113.521 104.125 112.604 103.625 112.062 102.625C111.562 101.625 111.104 100.167 110.688 98.25L110.312 96.5625C108.979 99.0208 107 101.042 104.375 102.625C101.75 104.167 98.7917 104.938 95.5 104.938ZM100.375 91.4375C103.875 91.4375 106.896 89.25 109.438 84.875V60.0625C106.812 58.6458 104.229 57.9375 101.688 57.9375C94.7708 57.9375 91.3125 63.5833 91.3125 74.875C91.3125 85.9167 94.3333 91.4375 100.375 91.4375Z" fill="white"/>
</svg>
