<svg width="488" height="187" viewBox="0 0 488 187" fill="none" xmlns="http://www.w3.org/2000/svg">
<path d="M21.375 85.1875C16.9167 85.1875 14.6875 84.0208 14.6875 81.6875V10.5625C14.6875 9.35417 15.2292 8.45833 16.3125 7.875C17.3958 7.25 19.0833 6.9375 21.375 6.9375H26.125C27.9167 6.9375 29.3958 7.14583 30.5625 7.5625C31.7292 7.97917 32.6875 8.79167 33.4375 10L59.6875 50.4375L62.6875 54.9375V10.5625C62.6875 9.35417 63.2292 8.45833 64.3125 7.875C65.3958 7.25 67.0833 6.9375 69.375 6.9375H72.5625C74.8542 6.9375 76.5208 7.25 77.5625 7.875C78.6458 8.45833 79.1875 9.35417 79.1875 10.5625V81.6875C79.1875 84.0208 76.9792 85.1875 72.5625 85.1875H68.3125C66.4792 85.1875 65 85 63.875 84.625C62.75 84.2083 61.8125 83.4167 61.0625 82.25L33.5625 40.1875L31.1875 36.6875V81.6875C31.1875 84.0208 28.9792 85.1875 24.5625 85.1875H21.375ZM109.812 85.9375C104.229 85.9375 100.104 84.4792 97.4375 81.5625C94.7708 78.6042 93.4375 74.0417 93.4375 67.875V30.1875C93.4375 29.0208 93.9792 28.1458 95.0625 27.5625C96.1458 26.9792 97.8333 26.6875 100.125 26.6875H103.188C105.479 26.6875 107.167 26.9792 108.25 27.5625C109.333 28.1458 109.875 29.0208 109.875 30.1875V65.375C109.875 67.6667 110.396 69.3958 111.438 70.5625C112.479 71.7292 114.188 72.3125 116.562 72.3125C118.604 72.3125 120.375 71.6667 121.875 70.375C123.417 69.0417 124.604 67.5417 125.438 65.875V30.1875C125.438 29.0208 125.979 28.1458 127.062 27.5625C128.146 26.9792 129.833 26.6875 132.125 26.6875H135.188C137.479 26.6875 139.167 26.9792 140.25 27.5625C141.333 28.1458 141.875 29.0208 141.875 30.1875V65.375C141.875 68.875 141.958 71.625 142.125 73.625C142.333 75.5833 142.583 77.4167 142.875 79.125C143.083 80.25 143.188 81.0417 143.188 81.5C143.188 82.3333 142.417 83.0208 140.875 83.5625C139.333 84.1042 137.562 84.5 135.562 84.75C133.604 85 132.021 85.125 130.812 85.125C129.479 85.125 128.521 84.6042 127.938 83.5625C127.396 82.4792 126.958 80.9583 126.625 79L126.312 77.4375C124.562 79.8125 122.208 81.8333 119.25 83.5C116.333 85.125 113.188 85.9375 109.812 85.9375ZM219.438 26C224.979 26 229.062 27.4583 231.688 30.375C234.354 33.2917 235.688 37.8125 235.688 43.9375V81.6875C235.688 84.0208 233.438 85.1875 228.938 85.1875H225.875C221.458 85.1875 219.25 84.0208 219.25 81.6875V46.4375C219.25 44.1875 218.729 42.4792 217.688 41.3125C216.688 40.1458 215 39.5625 212.625 39.5625C210.542 39.5625 208.771 40.2083 207.312 41.5C205.896 42.75 204.75 44.2083 203.875 45.875V81.6875C203.875 84.0208 201.646 85.1875 197.188 85.1875H194.062C189.646 85.1875 187.438 84.0208 187.438 81.6875V46.4375C187.438 44.1875 186.917 42.4792 185.875 41.3125C184.875 40.1458 183.208 39.5625 180.875 39.5625C178.875 39.5625 177.104 40.2292 175.562 41.5625C174.062 42.8958 172.917 44.375 172.125 46V81.6875C172.125 84.0208 169.875 85.1875 165.375 85.1875H162.312C157.896 85.1875 155.688 84.0208 155.688 81.6875V46.4375C155.688 41.1042 155.333 36.6667 154.625 33.125C154.417 32 154.312 31.2083 154.312 30.75C154.312 29.9167 155.083 29.25 156.625 28.75C158.208 28.2083 159.979 27.8125 161.938 27.5625C163.938 27.3125 165.542 27.1875 166.75 27.1875C168.042 27.1875 168.938 27.6667 169.438 28.625C169.979 29.5833 170.458 30.9792 170.875 32.8125L171.25 34.4375C173 32.0625 175.333 30.0625 178.25 28.4375C181.167 26.8125 184.312 26 187.688 26C191.521 26 194.625 26.6875 197 28.0625C199.417 29.4375 201.188 31.5625 202.312 34.4375C204.188 32.0625 206.646 30.0625 209.688 28.4375C212.729 26.8125 215.979 26 219.438 26ZM280.75 85.9375C277.458 85.9375 274.5 85.1667 271.875 83.625C269.25 82.0417 267.271 80.0208 265.938 77.5625L265.625 78.875C265.25 80.5 264.958 81.6458 264.75 82.3125C264.458 83.4792 263.812 84.25 262.812 84.625C261.812 85 260.333 85.1875 258.375 85.1875H257.062C252.604 85.1875 250.375 84.0208 250.375 81.6875V4.8125C250.375 3.60417 250.917 2.70833 252 2.125C253.083 1.5 254.771 1.1875 257.062 1.1875H260.125C264.583 1.1875 266.812 2.39583 266.812 4.8125V29.4375C269.938 27.1458 273.708 26 278.125 26C283.042 26 287.25 27.2292 290.75 29.6875C294.292 32.1042 296.979 35.5625 298.812 40.0625C300.646 44.5625 301.562 49.8333 301.562 55.875C301.562 62.1667 300.667 67.5833 298.875 72.125C297.125 76.625 294.667 80.0625 291.5 82.4375C288.375 84.7708 284.792 85.9375 280.75 85.9375ZM275.938 72.4375C281.896 72.4375 284.875 66.9167 284.875 55.875C284.875 44.5833 281.438 38.9375 274.562 38.9375C272.021 38.9375 269.438 39.6458 266.812 41.0625V65.875C269.354 70.25 272.396 72.4375 275.938 72.4375ZM339.938 85.9375C330.188 85.9375 322.917 83.3333 318.125 78.125C313.333 72.875 310.938 65.6042 310.938 56.3125C310.938 45.8542 313.333 38.1875 318.125 33.3125C322.917 28.4375 329.521 26 337.938 26C343.521 26 348.083 27.2708 351.625 29.8125C355.208 32.3542 357.812 35.7708 359.438 40.0625C361.104 44.3542 361.938 49.2083 361.938 54.625C361.938 55.25 361.562 56.0833 360.812 57.125C360.104 58.1667 359.292 59.1042 358.375 59.9375C357.458 60.7708 356.75 61.1875 356.25 61.1875H327.938C328.312 65.4375 329.562 68.4583 331.688 70.25C333.854 72 336.854 72.875 340.688 72.875C342.771 72.875 344.646 72.6458 346.312 72.1875C348.021 71.6875 349.833 71.0417 351.75 70.25C352.917 69.7083 353.708 69.4375 354.125 69.4375C354.875 69.4375 355.688 69.9792 356.562 71.0625C357.479 72.1042 358.25 73.3125 358.875 74.6875C359.542 76.0625 359.875 77.125 359.875 77.875C359.875 79.5833 358.708 81.0417 356.375 82.25C354.083 83.4583 351.354 84.375 348.188 85C345.062 85.625 342.312 85.9375 339.938 85.9375ZM345.938 50.25C345.938 46.8333 345.271 44.1042 343.938 42.0625C342.604 39.9792 340.604 38.9375 337.938 38.9375C332.438 38.9375 329.104 42.7083 327.938 50.25H345.938ZM379.812 85.1875C375.396 85.1875 373.188 84.0208 373.188 81.6875V46.4375C373.188 41.1042 372.833 36.6667 372.125 33.125C371.917 32 371.812 31.2083 371.812 30.75C371.812 29.9167 372.583 29.25 374.125 28.75C375.708 28.2083 377.479 27.8125 379.438 27.5625C381.438 27.3125 383.042 27.1875 384.25 27.1875C385.542 27.1875 386.438 27.6667 386.938 28.625C387.479 29.5833 387.958 30.9792 388.375 32.8125L388.75 34.4375C390.167 31.8542 391.792 29.8125 393.625 28.3125C395.5 26.7708 397.896 26 400.812 26C403.229 26 404.896 26.625 405.812 27.875C406.729 29.0833 407.188 30.4583 407.188 32C407.188 32.8333 407.042 34.0208 406.75 35.5625C406.458 37.0625 406.042 38.3958 405.5 39.5625C404.958 40.7292 404.354 41.3125 403.688 41.3125C403.229 41.3125 402.542 41.1875 401.625 40.9375C400.375 40.6042 399.312 40.4375 398.438 40.4375C396.396 40.4375 394.604 41.0208 393.062 42.1875C391.562 43.3125 390.417 44.5833 389.625 46V81.6875C389.625 84.0208 387.375 85.1875 382.875 85.1875H379.812ZM414 31.875C412.792 31.875 411.646 31.6875 410.562 31.3125C409.521 30.8958 409 30.2708 409 29.4375C409 28.7292 409.25 27.6667 409.75 26.25C410.625 24.1667 411.312 22.3958 411.812 20.9375C412.312 19.4375 412.771 17.3958 413.188 14.8125C413.646 12.2292 413.875 9.20833 413.875 5.75C413.875 4.20833 414.417 3.02083 415.5 2.1875C416.625 1.3125 418.312 0.875 420.562 0.875H422.688C424.896 0.875 426.562 1.33333 427.688 2.25C428.812 3.125 429.375 4.29167 429.375 5.75C429.375 9.66667 428.458 13.6667 426.625 17.75C424.833 21.7917 422.688 25.1667 420.188 27.875C417.729 30.5417 415.667 31.875 414 31.875ZM456 85.9375C451.958 85.9375 448.354 84.7708 445.188 82.4375C442.062 80.0625 439.604 76.625 437.812 72.125C436.062 67.5833 435.188 62.1667 435.188 55.875C435.188 49.8333 436.104 44.5625 437.938 40.0625C439.771 35.5625 442.438 32.1042 445.938 29.6875C449.479 27.2292 453.708 26 458.625 26C463.042 26 466.812 27.1458 469.938 29.4375V4.8125C469.938 2.39583 472.167 1.1875 476.625 1.1875H479.75C482.042 1.1875 483.708 1.5 484.75 2.125C485.833 2.70833 486.375 3.60417 486.375 4.8125V65.375C486.375 68.8333 486.458 71.5208 486.625 73.4375C486.833 75.3542 487.104 77.25 487.438 79.125C487.646 80.25 487.75 81.0417 487.75 81.5C487.75 82.3333 486.958 83.0208 485.375 83.5625C483.833 84.1042 482.062 84.5 480.062 84.75C478.104 85 476.521 85.125 475.312 85.125C474.021 85.125 473.104 84.625 472.562 83.625C472.062 82.625 471.604 81.1667 471.188 79.25L470.812 77.5625C469.479 80.0208 467.5 82.0417 464.875 83.625C462.25 85.1667 459.292 85.9375 456 85.9375ZM460.875 72.4375C464.375 72.4375 467.396 70.25 469.938 65.875V41.0625C467.312 39.6458 464.729 38.9375 462.188 38.9375C455.271 38.9375 451.812 44.5833 451.812 55.875C451.812 66.9167 454.833 72.4375 460.875 72.4375Z" fill="white"/>
<path d="M5.3906 108.61L481.391 93.2793L75.0621 133.447L419.165 149.697L212.81 166.868L314.924 181.279" stroke="white" stroke-width="10" stroke-linecap="round"/>
</svg>
